<svg width="25" height="13" viewBox="0 0 25 13" fill="none" xmlns="http://www.w3.org/2000/svg">
<path d="M2.16121 3.25L0.378769 5.29686C0.143938 5.56653 0.0685915 5.93999 0.180497 6.27961L0.210257 6.36993C0.300294 6.64318 0.491563 6.87158 0.744767 7.00819C1.0506 7.1732 1.41328 7.19625 1.73754 7.07129L2.12846 6.92063C2.34207 6.83831 2.5336 6.70742 2.6879 6.53831L3.15421 6.02727L3.85514 5.2L4.49766 5.73182L5.1986 6.5L6.01636 7.26818L5.1986 8.80455L4.74532 9.87451C4.69721 9.98807 4.66277 10.1069 4.64272 10.2286L4.59383 10.5254C4.53378 10.8899 4.66058 11.2602 4.93145 11.5114C5.10318 11.6706 5.32873 11.7591 5.56293 11.7591H5.6184C5.87619 11.7591 6.12651 11.6724 6.32911 11.513L6.34318 11.5019C6.47411 11.3989 6.58036 11.2679 6.65418 11.1186L6.95093 10.5182L7.65187 9.39545L8.3528 8.33182L9.57944 8.80455L10.514 9.1H11.3318V9.98636V11.6201C11.3318 11.7121 11.3474 11.8034 11.378 11.8902L11.4892 12.2051C11.5762 12.4514 11.7471 12.6591 11.9721 12.7919C12.1947 12.9232 12.4653 12.9447 12.7058 12.8501L12.9261 12.7634C13.2173 12.6489 13.4602 12.4377 13.614 12.1653L13.7366 11.9483C13.8067 11.8243 13.8435 11.6843 13.8435 11.5418V9.1L15.5958 8.80455L16.764 8.33182L17.757 9.98636L18.224 10.8839C18.3015 11.0329 18.4041 11.1675 18.5273 11.2817L18.7655 11.5026C18.9433 11.6675 19.1768 11.7591 19.4192 11.7591H19.6631C19.7915 11.7591 19.9171 11.7218 20.0247 11.6519C20.4261 11.3908 20.6495 10.9286 20.6046 10.4519L20.5804 10.1952C20.5675 10.0577 20.5242 9.92475 20.4538 9.80596L19.8598 8.80455L19.0421 7.26818L19.5093 6.79545L20.2687 5.90909L21.2617 5.02273L22.3715 6.32273L23.0661 6.98407C23.2576 7.16646 23.512 7.26818 23.7765 7.26818C24.1057 7.26818 24.4161 7.1143 24.6154 6.85221L24.8534 6.53916C24.8729 6.51346 24.8857 6.48328 24.8906 6.45137L24.9063 6.34821C24.966 5.95539 24.8584 5.55551 24.6096 5.24571L24.2407 4.78636L23.6565 4.01818L23.014 3.25L23.3645 2.42273L23.628 2.02292C23.831 1.71486 23.8855 1.33212 23.7766 0.979615L23.7587 0.921607C23.6924 0.706827 23.5588 0.519011 23.3778 0.385793L23.3206 0.343733C23.1214 0.197211 22.8807 0.118182 22.6334 0.118182C22.4618 0.118182 22.2933 0.163395 22.1447 0.249268L21.9551 0.35887C21.6919 0.51106 21.4716 0.727711 21.3152 0.988449L20.5607 2.24545L19.0421 3.78182L17.4065 5.2L15.5958 6.02727L13.3762 6.79545H11.6238L8.99533 6.02727L6.95093 4.60909L5.1986 2.89545L3.85514 1.35909L3.43134 0.608819C3.25603 0.298454 2.95004 0.0837589 2.59855 0.0244949C2.50238 0.00827939 2.40417 0.00827937 2.30799 0.0244949L1.92067 0.0897996C1.81072 0.108338 1.70831 0.157771 1.6254 0.232327C1.37159 0.460564 1.22664 0.785847 1.22664 1.12719V1.18425C1.22664 1.5305 1.32181 1.87009 1.50176 2.16591L2.16121 3.25Z" fill="#535353"/>
</svg>
